<svg id="Camada_1" data-name="Camada 1" xmlns="http://www.w3.org/2000/svg" viewBox="0 0 283.22 290.11"><defs><style>.cls-1{fill:#1d1d1b;}</style></defs><title>logonovo</title><path class="cls-1" d="M334,171a235.76,235.76,0,0,0-60.86-29.26c-22.71-7.13-46.81-11-70.55-7.76-21.18,2.87-41.4,11-59.53,22.22-17.43,10.74-33.79,24.2-46.42,40.4-12.8,16.41-21.29,35.69-22,56.68-.79,22.29,6.38,44.31,17.53,63.4s26,35.41,41.66,50.66c15,14.58,31,28.42,49.24,38.82,18.64,10.66,39.34,17,60.92,16.77,23-.28,45.34-7.19,66.2-16.43,5.22-2.3,10.36-4.77,15.44-7.36,4.78-2.44,9.59-4.89,14.15-7.71a42.57,42.57,0,0,0,11.37-9.62,30.81,30.81,0,0,0,6.06-14.84c3-21.28-5.79-42.86-18.61-59.47-13.45-17.41-31.77-30.26-50.46-41.46-19.66-11.78-40.32-22.81-62.72-28.31-21.68-5.32-45.4-5.29-65.91,4.29-17.14,8-31.64,22.83-36.88,41.27-3.2,11.27-2.9,23.26-.69,34.68,2,10.57,6,21,13.47,28.95,6.93,7.38,16.15,12.13,25.54,15.61a129.76,129.76,0,0,0,29.56,7.28c9.87,1.19,20.14.93,29.7-2a49.42,49.42,0,0,0,13.44-6.4c4.07-2.79,7.95-6.34,10-10.93,4.68-10.47-2-20.69-9.21-28a151.07,151.07,0,0,0-12.64-11.21q-3.48-2.79-7.1-5.42c-2.22-1.62-4.52-3.57-7.06-4.67-5.12-2.21-9.79,2.94-12.62,6.61a30,30,0,0,0-5.86,13.51,2.57,2.57,0,0,0,1.75,3.07,2.51,2.51,0,0,0,3.07-1.74,25.52,25.52,0,0,1,5.62-12.6,27.54,27.54,0,0,1,2.49-2.58,6.9,6.9,0,0,1,2.6-1.79c1-.23,2,.69,2.82,1.23,1.14.77,2.28,1.56,3.4,2.36q6.72,4.79,12.93,10.22A86.29,86.29,0,0,1,235,330.55c2.81,3.58,5.29,7.94,5.27,12.61s-2.77,8.56-6.15,11.56c-6.84,6.08-16.16,9.29-25.14,10.29a87.56,87.56,0,0,1-28.67-2,112.94,112.94,0,0,1-27.19-9.31c-8.66-4.44-16-10.68-20.55-19.38-4.84-9.23-6.94-20.18-7.29-30.52-.34-10.18,1.48-20.37,6.28-29.41a62.2,62.2,0,0,1,17-19.9c16.21-12.54,37-16.62,57.12-15,22,1.79,42.81,10.34,62.1,20.68,9.52,5.11,18.88,10.58,27.95,16.45a187.54,187.54,0,0,1,25.08,19c14.83,13.59,26.88,30.9,30.77,50.93a64.74,64.74,0,0,1,1.14,14.77c-.19,5.15-1.1,10.43-3.77,14.91-4.9,8.24-14.46,12.66-22.64,16.92-19.42,10.14-39.93,18.82-61.59,22.74a120,120,0,0,1-32.11,1.59,107.54,107.54,0,0,1-29.24-7.06c-18.53-7.21-35.07-19-50-31.89C137.65,365,122.72,350.17,110,333.91,97,317.43,86.59,298.72,82,278.15A95.77,95.77,0,0,1,80,246.85a84.05,84.05,0,0,1,8.19-27.75c8.47-17.32,21.82-31.8,36.65-43.9,15.66-12.78,33.42-23.4,52.55-30A130.8,130.8,0,0,1,207,138.41a137.63,137.63,0,0,1,34.23,1,215.46,215.46,0,0,1,63,20.18,233.67,233.67,0,0,1,27.15,15.74c2.67,1.8,5.18-2.53,2.52-4.32Z" transform="translate(-74.52 -132.8)"/></svg>